<svg width="24" height="24" viewBox="0 0 24 24" fill="none" xmlns="http://www.w3.org/2000/svg">
<path d="M16.6395 8.11069V14.4746C16.6395 14.6739 16.5603 14.865 16.4194 15.0059C16.2785 15.1468 16.0874 15.2259 15.8882 15.2259C15.6889 15.226 15.4978 15.1468 15.3569 15.0059C15.216 14.865 15.1369 14.6739 15.1369 14.4746L15.1378 9.92265L8.64123 16.4192C8.50058 16.5598 8.30981 16.6389 8.1109 16.6389C7.91199 16.6389 7.72122 16.5598 7.58057 16.4192C7.43992 16.2785 7.3609 16.0878 7.3609 15.8889C7.3609 15.6899 7.43992 15.4992 7.58057 15.3585L14.0771 8.86199L9.52467 8.86066C9.32541 8.86066 9.13432 8.78151 8.99342 8.64061C8.85252 8.49972 8.77337 8.30862 8.77337 8.10936C8.77337 7.9101 8.85252 7.71901 8.99342 7.57811C9.13432 7.43722 9.32541 7.35806 9.52467 7.35806H15.8886C15.9874 7.35795 16.0853 7.37735 16.1765 7.41515C16.2678 7.45296 16.3507 7.50842 16.4204 7.57835C16.4902 7.64829 16.5455 7.73132 16.5831 7.82267C16.6207 7.91402 16.6398 8.0119 16.6395 8.11069Z" fill="white"/>
</svg>
