<svg width="23" height="23" viewBox="0 0 23 23" fill="none" xmlns="http://www.w3.org/2000/svg">
<g id="ArrowRight">
<path id="Vector" d="M16.1395 7.61069V13.9746C16.1395 14.1739 16.0603 14.365 15.9194 14.5059C15.7785 14.6468 15.5874 14.7259 15.3882 14.7259C15.1889 14.726 14.9978 14.6468 14.8569 14.5059C14.716 14.365 14.6369 14.1739 14.6369 13.9746L14.6378 9.42265L8.14123 15.9192C8.00058 16.0598 7.80981 16.1389 7.6109 16.1389C7.41199 16.1389 7.22122 16.0598 7.08057 15.9192C6.93992 15.7785 6.8609 15.5878 6.8609 15.3889C6.8609 15.1899 6.93992 14.9992 7.08057 14.8585L13.5771 8.36199L9.02467 8.36066C8.82541 8.36066 8.63432 8.28151 8.49342 8.14061C8.35252 7.99972 8.27337 7.80862 8.27337 7.60936C8.27337 7.4101 8.35252 7.21901 8.49342 7.07811C8.63432 6.93722 8.82541 6.85806 9.02467 6.85806H15.3886C15.4874 6.85795 15.5853 6.87735 15.6765 6.91515C15.7678 6.95296 15.8507 7.00842 15.9204 7.07835C15.9902 7.14829 16.0455 7.23132 16.0831 7.32267C16.1207 7.41402 16.1398 7.5119 16.1395 7.61069Z" fill="white"/>
</g>
</svg>
