<svg width="18" height="18" viewBox="0 0 18 18" fill="none" xmlns="http://www.w3.org/2000/svg">
<g id="CaretRight">
<path id="Vector" d="M12.9719 9.59692L7.34692 15.2219C7.18841 15.3804 6.97343 15.4695 6.74927 15.4695C6.5251 15.4695 6.31012 15.3804 6.15161 15.2219C5.9931 15.0634 5.90405 14.8484 5.90405 14.6243C5.90405 14.4001 5.9931 14.1851 6.15161 14.0266L11.1797 8.99997L6.15302 3.97192C6.07453 3.89344 6.01227 3.80026 5.9698 3.69772C5.92732 3.59517 5.90546 3.48526 5.90546 3.37427C5.90546 3.26327 5.92732 3.15336 5.9698 3.05082C6.01227 2.94827 6.07453 2.8551 6.15302 2.77661C6.2315 2.69812 6.32468 2.63587 6.42722 2.59339C6.52977 2.55091 6.63968 2.52905 6.75067 2.52905C6.86167 2.52905 6.97158 2.55091 7.07412 2.59339C7.17667 2.63587 7.26984 2.69812 7.34833 2.77661L12.9733 8.40161C13.0519 8.48009 13.1142 8.57331 13.1567 8.67592C13.1991 8.77853 13.2209 8.88851 13.2208 8.99956C13.2207 9.11061 13.1986 9.22054 13.1559 9.32305C13.1132 9.42556 13.0507 9.51863 12.9719 9.59692Z" fill="white"/>
</g>
</svg>
