<svg width="13" height="13" viewBox="0 0 13 13" fill="none" xmlns="http://www.w3.org/2000/svg">
<path d="M5.45998 5.88266C5.48706 5.70391 5.54665 5.54683 5.62248 5.41141C5.69831 5.276 5.80665 5.16225 5.94206 5.07558C6.07206 4.99433 6.23456 4.95641 6.43498 4.951C6.55956 4.95641 6.67331 4.97808 6.77623 5.02141C6.88456 5.07016 6.98206 5.13516 7.0579 5.21641C7.13373 5.29766 7.19331 5.39516 7.24206 5.5035C7.29081 5.61183 7.31248 5.731 7.3179 5.85016H8.28748C8.27665 5.59558 8.2279 5.36266 8.13581 5.15141C8.04373 4.94016 7.91915 4.756 7.75665 4.60433C7.59415 4.45266 7.39915 4.3335 7.17165 4.24683C6.94415 4.16016 6.69498 4.12225 6.41873 4.12225C6.06665 4.12225 5.7579 4.18183 5.4979 4.30641C5.2379 4.431 5.02123 4.5935 4.8479 4.80475C4.67456 5.016 4.54456 5.25975 4.46331 5.54141C4.38206 5.82308 4.33331 6.11558 4.33331 6.42975V6.576C4.33331 6.89016 4.37665 7.18266 4.4579 7.46433C4.53915 7.746 4.66915 7.98975 4.84248 8.19558C5.01581 8.40141 5.23248 8.56933 5.49248 8.6885C5.75248 8.80766 6.06123 8.87266 6.41331 8.87266C6.6679 8.87266 6.90623 8.82933 7.12831 8.74808C7.3504 8.66683 7.5454 8.55308 7.71331 8.40683C7.88123 8.26058 8.01665 8.09266 8.11415 7.89766C8.21165 7.70266 8.27123 7.49683 8.27665 7.27475H7.30706C7.30165 7.3885 7.27456 7.49141 7.22581 7.58891C7.17706 7.68641 7.11206 7.76766 7.03081 7.83808C6.94956 7.9085 6.85748 7.96266 6.74915 8.00058C6.64623 8.0385 6.5379 8.04933 6.42415 8.05475C6.22915 8.04933 6.06665 8.01141 5.94206 7.93016C5.80665 7.8435 5.69831 7.72975 5.62248 7.59433C5.54665 7.45891 5.48706 7.29641 5.45998 7.11766C5.4329 6.93891 5.41665 6.75475 5.41665 6.576V6.42975C5.41665 6.24016 5.4329 6.06141 5.45998 5.88266ZM6.49998 1.0835C3.50998 1.0835 1.08331 3.51016 1.08331 6.50016C1.08331 9.49016 3.50998 11.9168 6.49998 11.9168C9.48998 11.9168 11.9166 9.49016 11.9166 6.50016C11.9166 3.51016 9.48998 1.0835 6.49998 1.0835ZM6.49998 10.8335C4.11123 10.8335 2.16665 8.88891 2.16665 6.50016C2.16665 4.11141 4.11123 2.16683 6.49998 2.16683C8.88873 2.16683 10.8333 4.11141 10.8333 6.50016C10.8333 8.88891 8.88873 10.8335 6.49998 10.8335Z" fill="#D3D6D3"/>
</svg>
